<svg id="Capa_1" data-name="Capa 1" xmlns="http://www.w3.org/2000/svg" width="75" height="75" viewBox="0 0 75 75"><defs><style>.cls-1{fill:#212121;}</style></defs><path class="cls-1" d="M54.0325,36.9434h4.3731a1.7951,1.7951,0,0,0,1.793-1.7931V30.7772a1.7951,1.7951,0,0,0-1.793-1.793H54.0325a1.7951,1.7951,0,0,0-1.7931,1.793V35.15A1.7952,1.7952,0,0,0,54.0325,36.9434Zm.0437-6.1225h4.2857v4.2857H54.0762Zm-.0437,17.755h4.3731a1.795,1.795,0,0,0,1.793-1.793V42.41a1.7951,1.7951,0,0,0-1.793-1.793H54.0325a1.7951,1.7951,0,0,0-1.7931,1.793v4.3731A1.7951,1.7951,0,0,0,54.0325,48.5759Zm.0437-6.1224h4.2857v4.2857H54.0762Zm-12.5232-5.51h4.3731a1.7951,1.7951,0,0,0,1.7931-1.793V30.7772a1.7951,1.7951,0,0,0-1.7931-1.793H41.553a1.7951,1.7951,0,0,0-1.793,1.793V35.15A1.795,1.795,0,0,0,41.553,36.9433Zm.0437-6.1224h4.2857v4.2857H41.5967ZM20.9673,51.704H16.5942a1.795,1.795,0,0,0-1.793,1.793V57.87a1.795,1.795,0,0,0,1.793,1.793h4.3731A1.7951,1.7951,0,0,0,22.76,57.87V53.497A1.795,1.795,0,0,0,20.9673,51.704Zm-.0437,6.1224H16.6379V53.5407h4.2857Zm.0437-28.8422H16.5942a1.795,1.795,0,0,0-1.793,1.793V35.15a1.7951,1.7951,0,0,0,1.793,1.7931h4.3731A1.7951,1.7951,0,0,0,22.76,35.15V30.7772A1.795,1.795,0,0,0,20.9673,28.9842Zm-.0437,6.1224H16.6379V30.8209h4.2857ZM41.553,48.3032h4.3731a1.7951,1.7951,0,0,0,1.7931-1.793V42.1371a1.7951,1.7951,0,0,0-1.7931-1.793H41.553a1.7951,1.7951,0,0,0-1.793,1.793V46.51A1.795,1.795,0,0,0,41.553,48.3032Zm.0437-6.1224h4.2857v4.2857H41.5967ZM61.1107,10.35H57.1843V8.946a2.7958,2.7958,0,0,0-2.7927-2.7927H53.97A2.7958,2.7958,0,0,0,51.1773,8.946V10.35H23.8224V8.946A2.7957,2.7957,0,0,0,21.03,6.1533H20.608A2.7958,2.7958,0,0,0,17.8154,8.946V10.35H13.8891a4.6032,4.6032,0,0,0-4.598,4.5979V64.2549a4.597,4.597,0,0,0,4.5918,4.5918H61.1171a4.597,4.597,0,0,0,4.5918-4.5918V14.948A4.6034,4.6034,0,0,0,61.1107,10.35ZM53.0141,8.946A.957.957,0,0,1,53.97,7.99h.4217a.957.957,0,0,1,.956.956V10.35H53.0141Zm-33.3619,0a.957.957,0,0,1,.956-.956H21.03a.957.957,0,0,1,.9559.956V10.35H19.6523V8.946Zm44.22,55.3089A2.7581,2.7581,0,0,1,61.1169,67.01H13.8828a2.7582,2.7582,0,0,1-2.7551-2.7551v-.0057a4.5749,4.5749,0,0,0,2.7614.9241H51.1235a4.5676,4.5676,0,0,0,3.2512-1.3468l9.4973-9.4974ZM53.4376,62.1661a3.928,3.928,0,0,0,.1112-.9261V55.11a2.0989,2.0989,0,0,1,2.0965-2.0965h6.13a3.9271,3.9271,0,0,0,.926-.1112ZM63.872,23.4741H24.7408a.9184.9184,0,1,0,0,1.8367H63.872V49.08a2.0989,2.0989,0,0,1-2.0965,2.0965h-6.13A3.9377,3.9377,0,0,0,51.7121,55.11v6.13a2.099,2.099,0,0,1-2.0965,2.0966H13.8891a2.7643,2.7643,0,0,1-2.7612-2.7614V25.3108h9.9394a.9184.9184,0,1,0,0-1.8367h-9.94V14.948a2.7644,2.7644,0,0,1,2.7612-2.7612h3.9265v2.7A2.7958,2.7958,0,0,0,20.608,17.68a.9184.9184,0,1,0,0-1.8367.957.957,0,0,1-.9559-.956v-2.7H51.1773v2.7A2.7959,2.7959,0,0,0,53.97,17.68a.9184.9184,0,1,0,0-1.8367.957.957,0,0,1-.9559-.956v-2.7h8.0967A2.7644,2.7644,0,0,1,63.872,14.948Zm-42.9047,16.87H16.5942a1.795,1.795,0,0,0-1.793,1.793V46.51a1.795,1.795,0,0,0,1.793,1.793h4.3731A1.795,1.795,0,0,0,22.76,46.51V42.1371A1.7949,1.7949,0,0,0,20.9673,40.3441Zm-.0437,6.1224H16.6379V42.1808h4.2857Zm8.15-9.5232h4.3731A1.795,1.795,0,0,0,35.24,35.15V30.7772a1.795,1.795,0,0,0-1.793-1.793H29.0736a1.7951,1.7951,0,0,0-1.793,1.793V35.15A1.795,1.795,0,0,0,29.0736,36.9433Zm.0437-6.1224H33.403v4.2857H29.1173ZM41.5957,57.8264A.9184.9184,0,0,0,39.76,57.87a1.7951,1.7951,0,0,0,1.793,1.793H45.926a1.795,1.795,0,0,0,1.793-1.793V53.497a1.795,1.795,0,0,0-1.793-1.793H41.5529a1.795,1.795,0,0,0-1.793,1.793v1.2612a.9184.9184,0,1,0,1.8367,0V53.5407h4.2857v4.2857ZM29.0736,48.3032h4.3731A1.795,1.795,0,0,0,35.24,46.51V42.1371a1.795,1.795,0,0,0-1.793-1.793H29.0736a1.7951,1.7951,0,0,0-1.793,1.793V46.51A1.795,1.795,0,0,0,29.0736,48.3032Zm.0437-6.1224H33.403v4.2857H29.1173Zm-.0437,17.4823h4.3731A1.795,1.795,0,0,0,35.24,57.87V53.497a1.795,1.795,0,0,0-1.793-1.793H29.0736a1.795,1.795,0,0,0-1.793,1.793V57.87A1.7951,1.7951,0,0,0,29.0736,59.6631Zm.0437-6.1224H33.403v4.2857H29.1173Z"/></svg>