<svg id="Capa_1" data-name="Capa 1" xmlns="http://www.w3.org/2000/svg" width="75" height="75" viewBox="0 0 75 75"><defs><style>.cls-1{fill:#212121;}</style></defs><path class="cls-1" d="M20.6211,24.2675a16.2887,16.2887,0,0,0-16.27,16.27c0,5.57,2.65,11.5589,7.8756,17.8.7765.9273,1.55,1.7866,2.2927,2.5706-3.3742.921-5.4,2.5757-5.4,4.5069,0,3.4189,5.9258,5.2638,11.5014,5.2638s11.5014-1.845,11.5014-5.2638c0-1.93-2.0252-3.5847-5.3972-4.5061a52.9787,52.9787,0,0,0,4.1721-4.9618A.973.973,0,1,0,29.33,54.7932,52.2352,52.2352,0,0,1,24.3039,60.6a.973.973,0,0,0-.4243.4211c-1.405,1.3807-2.5873,2.405-3.2581,2.9647-.6635-.5542-1.8277-1.5647-3.2146-2.9273a.973.973,0,0,0-.4877-.4846C12.5116,56.1408,6.297,48.4815,6.297,40.5379a14.324,14.324,0,0,1,28.648,0,21.9227,21.9227,0,0,1-3.4932,11.0713.9731.9731,0,1,0,1.6727.9948,23.8154,23.8154,0,0,0,3.7667-12.0661A16.2885,16.2885,0,0,0,20.6211,24.2675ZM20.0256,66.01a.9732.9732,0,0,0,1.1911,0A49.4726,49.4726,0,0,0,25.13,62.53c3.2819.6693,5.0466,1.958,5.0466,2.8856,0,.6927-.95,1.51-2.4779,2.1328a19.4,19.4,0,0,1-7.0775,1.1849c-5.8331,0-9.5554-1.9651-9.5554-3.3177,0-.9289,1.7653-2.2169,5.049-2.8862A49.4538,49.4538,0,0,0,20.0256,66.01Z"/><path class="cls-1" d="M20.6211,33.4633a7.0161,7.0161,0,0,0-4.2323,1.4052.9731.9731,0,0,0,1.1653,1.5588A5.1146,5.1146,0,1,1,15.6913,39.12a.973.973,0,1,0-1.87-.5369,7.0751,7.0751,0,1,0,6.8-5.12Z"/><path class="cls-1" d="M63.0272,32.5907c.4951-.5313,1.0051-1.1036,1.5165-1.7146,4.0512-4.8386,6.1054-9.49,6.1054-13.8255A12.7318,12.7318,0,0,0,46.19,12.0953a.973.973,0,0,0,1.7922.7582A10.7858,10.7858,0,0,1,68.703,17.0507c0,8.0412-8.4423,15.7452-10.7842,17.727-.5161-.4362-1.3284-1.15-2.2809-2.0837a.9719.9719,0,0,0-.4328-.43c-3.36-3.3829-8.07-9.198-8.07-15.2133a.9731.9731,0,0,0-1.9462,0c0,4.3354,2.0542,8.9868,6.1056,13.8256.5113.61,1.0209,1.1826,1.5157,1.7137-2.5084.7537-3.9565,2.0366-3.9565,3.5813,0,1.3028,1.0568,2.451,2.976,3.2329a16.6474,16.6474,0,0,0,6.0891,1.0378,16.6476,16.6476,0,0,0,6.089-1.0378c1.9189-.782,2.9757-1.93,2.9757-3.233C66.9837,34.6293,65.5345,33.3453,63.0272,32.5907Zm-5.1082,5.905c-4.6061,0-7.1188-1.5356-7.1188-2.3246,0-.514,1.143-1.4547,3.5837-1.9737a38.0477,38.0477,0,0,0,2.94,2.6085.9732.9732,0,0,0,1.1911,0,37.9593,37.9593,0,0,0,2.94-2.6082,8.9225,8.9225,0,0,1,2.6886.9728c.56.3414.8948.7154.8948,1.0006C65.0376,36.96,62.5249,38.4957,57.919,38.4957Z"/><path class="cls-1" d="M57.9192,11.3885a5.6623,5.6623,0,1,0,5.6623,5.6623A5.6686,5.6686,0,0,0,57.9192,11.3885Zm0,9.3783a3.7162,3.7162,0,1,1,3.7162-3.7161A3.72,3.72,0,0,1,57.9194,20.7668Z"/><path class="cls-1" d="M45.2968,35.1981h-.4443a7.34,7.34,0,0,0-.9666.0638.9732.9732,0,1,0,.2568,1.9293,5.4053,5.4053,0,0,1,.71-.0466h.4441v0a.9732.9732,0,0,0,0-1.9463Z"/><path class="cls-1" d="M42.08,64.3929h-.0045l-1.2852.0059a.9731.9731,0,0,0,.0043,1.9462h.0045l1.2852-.0059a.9731.9731,0,0,0-.0043-1.9462Z"/><path class="cls-1" d="M46.4515,47.8024H45.1663a.9731.9731,0,0,0,0,1.9462h1.2852a.9731.9731,0,1,0,0-1.9462Z"/><path class="cls-1" d="M41.2955,37.1807a.9734.9734,0,0,0-1.375-.0555,7.319,7.319,0,0,0-.9808,1.1084.9732.9732,0,1,0,1.5809,1.1354,5.3737,5.3737,0,0,1,.7194-.8133A.9731.9731,0,0,0,41.2955,37.1807Z"/><path class="cls-1" d="M47.2208,64.3694h-.0045l-1.2851.0058a.9731.9731,0,0,0,.0043,1.9462H45.94l1.285-.0059a.9731.9731,0,0,0-.0043-1.9461Z"/><path class="cls-1" d="M36.939,64.4161h-.0045l-1.2852.0059a.9731.9731,0,0,0,.0043,1.9462h.0045l1.2852-.0059a.9731.9731,0,0,0-.0043-1.9462Z"/><path class="cls-1" d="M42.0141,46.9844a5.3732,5.3732,0,0,1-.8545-.6691A.973.973,0,1,0,39.81,47.7177a7.3162,7.3162,0,0,0,1.1653.9127.9731.9731,0,1,0,1.0384-1.646Z"/><path class="cls-1" d="M39.6221,43.4992a5.3806,5.3806,0,0,1-.0985-1.0257l0-.0541a.9729.9729,0,0,0-.9617-.9842l-.0115,0a.9731.9731,0,0,0-.9729.9618l0,.0767a7.3319,7.3319,0,0,0,.1344,1.3979.9731.9731,0,0,0,1.91-.3723Z"/><path class="cls-1" d="M51.5926,47.8024H50.3074a.9731.9731,0,0,0,0,1.9462h1.2852a.9731.9731,0,0,0,0-1.9462Z"/><path class="cls-1" d="M67.2155,49.7835a9.27,9.27,0,0,0-1.1913-.7986A.973.973,0,1,0,65.069,50.68a7.3443,7.3443,0,0,1,.94.6307.9732.9732,0,0,0,1.2062-1.5276Z"/><path class="cls-1" d="M63.6035,65.0666a.9735.9735,0,0,0-1.0971-.8307,7.3345,7.3345,0,0,1-.9705.0685l-.1821.0009a.9731.9731,0,0,0,.0045,1.9462h.0048l.1817-.0009a9.2983,9.2983,0,0,0,1.2279-.0868A.9732.9732,0,0,0,63.6035,65.0666Z"/><path class="cls-1" d="M67.898,62.33a.9726.9726,0,0,0-1.3756-.0335,7.3548,7.3548,0,0,1-.8785.7158.9732.9732,0,1,0,1.1088,1.6,9.2912,9.2912,0,0,0,1.112-.9062A.9729.9729,0,0,0,67.898,62.33Z"/><path class="cls-1" d="M69.7918,57.6044a.9733.9733,0,0,0-1.1362.7761,7.29,7.29,0,0,1-.2955,1.0923.9732.9732,0,1,0,1.8333.6536,9.2271,9.2271,0,0,0,.3749-1.3857A.9733.9733,0,0,0,69.7918,57.6044Z"/><path class="cls-1" d="M70.37,54.4765a9.1768,9.1768,0,0,0-.5037-1.3459.9731.9731,0,1,0-1.7636.8229,7.2314,7.2314,0,0,1,.3967,1.06.973.973,0,1,0,1.8706-.5368Z"/><path class="cls-1" d="M56.7336,47.8024H55.4484a.9731.9731,0,0,0,0,1.9462h1.2852a.9731.9731,0,1,0,0-1.9462Z"/><path class="cls-1" d="M52.3618,64.346h-.0045l-1.2852.0059a.9731.9731,0,0,0,.0043,1.9461h.0045l1.2852-.0058a.9731.9731,0,0,0-.0043-1.9462Z"/><path class="cls-1" d="M61.9173,47.8117c-.1376-.0062-.2771-.0092-.4142-.0092h-.9139a.9731.9731,0,0,0,0,1.9462h.9139v0q.165,0,.3282.0073l.0438.001a.973.973,0,0,0,.0422-1.9451Z"/><path class="cls-1" d="M57.5027,64.3228h-.0046l-1.2852.0059a.9731.9731,0,0,0,.0043,1.9461h.0046l1.2851-.0058a.9731.9731,0,0,0-.0042-1.9462Z"/></svg>