<svg id="Capa_1" data-name="Capa 1" xmlns="http://www.w3.org/2000/svg" width="45.8656" height="42.6273" viewBox="0 0 45.8656 42.6273"><defs><style>.cls-1{fill:#252324;}.cls-2{fill:#fff;}</style></defs><path class="cls-1" d="M40.3037,27.7889s3.5069-.2605,3.5069,3.9908a3.5881,3.5881,0,0,1-3.5166,3.8977l.0054,3.324s7.6334-.6077,7.6334.7249c0,.2843-.6938,1.5738-10.0624,2.2239-2.9095.2018-18.3028.5641-21.8189.1782-.7777,1.2971-4.2476,2.77-6.98,1.9472-.671-.2024.9758-2.3638.9758-2.3638s-7.9806.1706-7.9806-1.9736c0-1.4015,3.3828-.6588,5.3563-.7121l2.5156.2347a18.8781,18.8781,0,0,1-2.3854-.69,3.0079,3.0079,0,0,1-1.7566-2.91s.022-2.0315.022-4.25c0-2.7,1.8483-3.0861,1.8483-3.0861v-3.94l1.8272.022A3.1711,3.1711,0,0,1,7.521,21.3916a3.3982,3.3982,0,0,1,1.5721-3.1448l-2.3208-.0052V14.55h.96V10.5323h-.91V6.9053S2.17,7.3935,2.17,6.6615c0-2.2422,10.1334-2.3,13.7109-2.5317,4.2179-.2729,17.6145-.1518,17.6145-.1518S36.786.4623,40.0826,2.14c1.1276.5366-1.2208,2.0188-.5043,2.3095,2.212.3089,7.85-.0043,7.747,2.0032-.0431.8434-4.3875.6265-4.3875.6265l-.0172,11.2921h-.9517l.0081,4.18-1.6346-.0081Z" transform="translate(-2.0672 -1.6864)"/><path class="cls-2" d="M3.1221,6.3155c1.4828.05,3.55-.2024,5.113-.2729,1.83-.0829,3.6587-.1507,5.4881-.1776,3.63-.0533,7.3186-.1173,10.9574-.0528l16.2226.2745c.8978.0194,1.7966.0781,2.6949.0872l2.0247.0813c.0233,0,.3138-.0047.3246-.0065l.2933-.09a.4377.4377,0,0,0,.092-.0436c-.2524-.34-1.1183-.3794-1.7578-.4747-1.7691-.2637-5.374-.445-6.1576-.6216-.4441-1.1991.8159-1.3789.867-2.35a4.7946,4.7946,0,0,0-3.9182.867C33.4,4.8282,35.547,4.8876,31.3648,4.7692c-1.0414-.03-3.5731.0678-4.57-.0775C23.9249,4.6847,6.6275,4.6858,3.1221,6.3155Z" transform="translate(-2.0672 -1.6864)"/><path class="cls-2" d="M14.7166,12.3488a2.86,2.86,0,0,0,.4806-.8061,2.6366,2.6366,0,0,0-.0489-2.0022,2.7521,2.7521,0,0,0-.606-.8666,2.8631,2.8631,0,0,0-.8988-.5845,2.8218,2.8218,0,0,0-1.1007-.2153H7.6669V9.7557h.9752v5.6437H7.6669v1.8815h4.876a3.0656,3.0656,0,0,0,2.1387-.8531,2.9377,2.9377,0,0,0,.6476-.9272A2.8,2.8,0,0,0,14.7166,12.3488Zm-4.1241-.9005V9.7551h1.95a.8608.8608,0,0,1,.62.2487.8223.8223,0,0,1,.0334,1.1625q-.0162.0173-.0334.0334a.8623.8623,0,0,1-.62.2486m.76,3.6484a1.055,1.055,0,0,1-.7595.3019h-1.95V13.3294h1.9505a1.0531,1.0531,0,0,1,.7594.3024,1.0131,1.0131,0,0,1,.0328,1.4323l-.0328.0328Z" transform="translate(-2.0672 -1.6864)"/><polygon class="cls-2" points="39.72 9.009 39.72 6.187 32.893 6.187 32.893 8.069 33.868 8.069 33.868 13.712 32.893 13.712 32.893 15.594 39.72 15.594 39.72 12.772 37.769 12.772 37.769 13.712 35.819 13.712 35.819 11.831 37.769 11.831 37.769 9.95 35.819 9.95 35.819 8.069 37.769 8.069 37.769 9.009 39.72 9.009"/><path class="cls-2" d="M33.5809,13.0941a3.6777,3.6777,0,0,0-1.0936-.86,5.7177,5.7177,0,0,0-1.9295-.571q-1.95-.2819-1.9505-1.1556a.7664.7664,0,0,1,.3133-.578,1.343,1.343,0,0,1,.8988-.2686,3.2536,3.2536,0,0,1,.7036.0673,2.2539,2.2539,0,0,1,1.0237.5172,6.0475,6.0475,0,0,1,.46.45h1.9644V7.8736H32.02v.4031a4.3129,4.3129,0,0,0-.9612-.3628,5.0649,5.0649,0,0,0-1.24-.1345,3.5927,3.5927,0,0,0-1.24.2083,3.2357,3.2357,0,0,0-1.0032.5774,2.6918,2.6918,0,0,0-.676.867,2.409,2.409,0,0,0-.2438,1.0748,3.1825,3.1825,0,0,0,.1184.8,2.1666,2.1666,0,0,0,.5016.88A3.713,3.713,0,0,0,28.37,12.98a6.2412,6.2412,0,0,0,1.895.5377q.3342.054.676.141a2.9288,2.9288,0,0,1,.6265.2352,1.561,1.561,0,0,1,.4671.3563.7248.7248,0,0,1,.1809.4908.6194.6194,0,0,1-.3483.5442,1.6805,1.6805,0,0,1-.8778.2082,3.7935,3.7935,0,0,1-.7175-.06,2.25,2.25,0,0,1-.5717-.1883,2.7979,2.7979,0,0,1-.5015-.3224,4.6607,4.6607,0,0,1-.4946-.4634h-1.95v2.8218h1.9505v-.4171a4.7017,4.7017,0,0,0,1.01.3692,5.2567,5.2567,0,0,0,1.275.1415,3.818,3.818,0,0,0,1.2611-.2012,3.2535,3.2535,0,0,0,1.0032-.5512,2.5527,2.5527,0,0,0,.6689-.8331,2.296,2.296,0,0,0,.2439-1.0479,3.4068,3.4068,0,0,0-.1045-.7325A2.2943,2.2943,0,0,0,33.5809,13.0941Z" transform="translate(-2.0672 -1.6864)"/><path class="cls-2" d="M22.4723,7.8736H19.4906L17.15,15.3988h-.9473V17.28h3.9009V15.3988h-.9192l.2923-.94h3.0091l.2928.94H21.86V17.28h3.901V15.3988h-.9481Zm-2.41,4.7039L20.94,9.7551h.0834l.8779,2.8224Z" transform="translate(-2.0672 -1.6864)"/><path class="cls-2" d="M40.95,18.6706v2.8218H39.1271v-.9408H37.3042v1.8816h1.8229v1.8816H37.3042v1.8816h.9112v1.881H34.57v-1.881h.9112V20.5516H34.57v-1.881ZM28.3856,22.8094h1.549a1.0393,1.0393,0,0,0,.775-.3294,1.1609,1.1609,0,0,0,0-1.599,1.0385,1.0385,0,0,0-.775-.3294h-1.549Zm5.3772,3.3864v1.8811H30.1176V26.1958h.7416L30.026,24.69h-1.64v1.5054h.9112v1.8811H25.651V26.1958h.9117V20.5516H25.651v-1.881h4.3229a2.773,2.773,0,0,1,1.1194.2551,3.0034,3.0034,0,0,1,1.53,1.5925,3.0928,3.0928,0,0,1-.0722,2.4928,3.1428,3.1428,0,0,1-.7938,1.0216l1.2109,2.1638h.7944Zm-8.9315-7.5252v1.881H23.92v4.7036a2.8157,2.8157,0,0,1-.2148,1.1022,2.8832,2.8832,0,0,1-.5861.894,2.75,2.75,0,0,1-.8724.6044,2.6013,2.6013,0,0,1-1.0613.2218H19.9094a2.5754,2.5754,0,0,1-1.0673-.2218,2.7653,2.7653,0,0,1-.866-.6044,2.8668,2.8668,0,0,1-.5861-.894,2.8138,2.8138,0,0,1-.2147-1.1022V20.5516h-.9117v-1.881h3.6452v1.881h-.9112v4.7036a.92.92,0,0,0,.267.6652.8643.8643,0,0,0,.6442.2756h1.2761A.8657.8657,0,0,0,21.83,25.92a.9226.9226,0,0,0,.267-.6652V20.5516h-.9112v-1.881ZM12.15,22.46a5.0994,5.0994,0,0,1,1.8032.571,3.4855,3.4855,0,0,1,1.0221.86,2.3633,2.3633,0,0,1,.4494.9139,3.61,3.61,0,0,1,.0974.7325,2.4321,2.4321,0,0,1-.2277,1.0484,2.5373,2.5373,0,0,1-.6248.8331,2.9847,2.9847,0,0,1-.9376.5511,3.3549,3.3549,0,0,1-1.1789.2013,4.6065,4.6065,0,0,1-1.191-.141,4.2284,4.2284,0,0,1-.944-.37v.4166H8.5951V25.2552h1.823a4.4647,4.4647,0,0,0,.4623.4634,2.5514,2.5514,0,0,0,.4687.3224,1.999,1.999,0,0,0,.534.1883,3.3749,3.3749,0,0,0,.6706.06,1.4942,1.4942,0,0,0,.82-.2082.6254.6254,0,0,0,.3256-.5442.7526.7526,0,0,0-.169-.49,1.4768,1.4768,0,0,0-.4359-.3563,2.6339,2.6339,0,0,0-.5861-.2352q-.3189-.0871-.6313-.141a5.5422,5.5422,0,0,1-1.7706-.5371,3.5,3.5,0,0,1-1.0221-.7928,2.2039,2.2039,0,0,1-.4688-.8806,3.4021,3.4021,0,0,1-.11-.8,2.5555,2.5555,0,0,1,.2277-1.0753,2.671,2.671,0,0,1,.6313-.8667,2.964,2.964,0,0,1,.9376-.5775,3.1506,3.1506,0,0,1,1.1587-.2083,4.4373,4.4373,0,0,1,1.1588.1346,3.8632,3.8632,0,0,1,.8983.3627v-.4031h1.8229v2.8219H13.5047a6.0713,6.0713,0,0,0-.4295-.4506,2.1611,2.1611,0,0,0-.4429-.3223,2.0881,2.0881,0,0,0-.5146-.1949,2.8554,2.8554,0,0,0-.6582-.0672,1.1983,1.1983,0,0,0-.84.2691.7814.7814,0,0,0-.2928.5775Q10.3271,22.1776,12.15,22.46Z" transform="translate(-2.0672 -1.6864)"/><path class="cls-2" d="M39.717,32.85a1.1292,1.1292,0,1,0,0-2.2584H38.118v2.2578h1.599Zm0-4.1388a2.9467,2.9467,0,0,1,1.169.2351,2.9959,2.9959,0,0,1,1.6055,1.6055,3.0085,3.0085,0,0,1-1.6054,3.9445,2.9492,2.9492,0,0,1-1.169.2352H38.118v1.505h.9408v1.8811H35.2962V36.2361h.94V30.5919h-.94v-1.881Zm-5.254,0v1.881h-.9409V36.236h.9408v1.8811H30.7005V36.236h.9407V32.2049l-1.881,2.97-1.8816-2.97V36.236h.9408v1.8811H25.0568V36.236h.9408V30.5919h-.9408v-1.881h2.8487L29.76,31.6538l1.8544-2.9429ZM20.5008,33.4142l-.8466-2.8223h-.0807l-.8466,2.8223Zm3.7223,2.8218v1.8811H20.4605V36.236h.887l-.2821-.94H18.1629l-.2825.94h.8869v1.881H15.0047v-1.881h.9141l2.2577-7.525h2.8757l2.2577,7.525ZM12.3712,32.0031v-.4706a.9408.9408,0,0,0-.9408-.9408H9.5493a.9408.9408,0,0,0-.9408.9408v3.7633a.9408.9408,0,0,0,.9408.9408h1.88a.9408.9408,0,0,0,.9408-.9408v-.47h1.881v.4706A2.7336,2.7336,0,0,1,14.03,36.398a2.8278,2.8278,0,0,1-1.505,1.4978,2.758,2.758,0,0,1-1.0953.2218H9.5488a2.7312,2.7312,0,0,1-1.1016-.2218,2.8466,2.8466,0,0,1-1.4979-1.4983,2.7333,2.7333,0,0,1-.2217-1.1017V31.5332a2.7579,2.7579,0,0,1,.2217-1.0953,2.8312,2.8312,0,0,1,1.4979-1.5053,2.7425,2.7425,0,0,1,1.1017-.2218H11.43a2.7577,2.7577,0,0,1,1.0953.2218,2.8127,2.8127,0,0,1,1.505,1.5053,2.7472,2.7472,0,0,1,.2217,1.0953v.4706H12.3712Z" transform="translate(-2.0672 -1.6864)"/><path class="cls-2" d="M46.3322,39.7321c-1.4828-.05-3.55.2029-5.1125.2734-1.83.0829-3.6587.1512-5.4888.1776-3.63.0533-7.3186.1173-10.9569.0528L8.5514,39.9614c-.8983-.02-1.7966-.0781-2.6948-.0878l-2.0244-.0805c-.0233-.0011-.3138.0043-.3246.0059l-.2935.09a.44.44,0,0,0-.092.0436c.2519.34,1.1189.3789,1.7583.4747,1.7691.2637,5.374.4451,6.1576.6216.444,1.1991-.8159,1.3789-.867,2.35a4.7938,4.7938,0,0,0,3.9181-.867c1.9666-1.2923-.1808-1.3513,4.0022-1.2331,1.0414.03,3.5731-.0678,4.57.0775C25.5293,41.3636,42.827,41.3625,46.3322,39.7321Z" transform="translate(-2.0672 -1.6864)"/></svg>