<svg id="Capa_1" data-name="Capa 1" xmlns="http://www.w3.org/2000/svg" width="75" height="75" viewBox="0 0 75 75"><defs><style>.cls-1{fill:#212121;}</style></defs><path class="cls-1" d="M65.0052,66.5219c-2.0352-3.094-5.6181-6.137-10.9372-9.2858a.935.935,0,1,0-.95,1.6107c4.4582,2.6386,7.6124,5.1637,9.5838,7.6753C52.3786,69.0209,32.68,63.1657,12.82,56.4022a1.6523,1.6523,0,0,1-.4737-2.8757l3.4889-2.6681a.9354.9354,0,0,0,.3376-.9757l-1.0941-4.2546A1.6515,1.6515,0,0,1,17.2269,43.66c4.9876,1.7519,9.1121,3.2542,12.8453,4.6793l-4.9365,4.9123a.9351.9351,0,0,0-.0091,1.3165L31.8347,61.37a.9271.9271,0,0,0,.66.2761h.0032a.9353.9353,0,0,0,.6611-.2738l.4716-.4715a4.5546,4.5546,0,0,0,.5931-5.6948l3.7367-3.7232c.21.0876.4193.1744.6286.2627l-1.5125,1.5054a.9349.9349,0,0,0-.0091,1.3163L43.7744,61.37a.9274.9274,0,0,0,.66.2761h.0033a.9355.9355,0,0,0,.6612-.2738l.471-.4709a4.5552,4.5552,0,0,0,.603-5.682l.0424-.0424c1.2269.5941,2.4,1.1869,3.5022,1.77a.9348.9348,0,0,0,1.26-.38l0,0a.934.934,0,0,0-.3826-1.2712c-.9465-.5008-1.9438-1.0082-2.9811-1.5171l4.4145-4.4144a3.9,3.9,0,0,0,0-5.5149l-8.3917-8.3917,1.2371-5.5769a3.2252,3.2252,0,0,1,3.8717-2.4444l9.63,2.2189a4.1772,4.1772,0,0,0,5.0261-3.2078,4.2383,4.2383,0,0,0-3.2222-4.9536L47.3456,18.537a8.9563,8.9563,0,1,0-17.165-3.9548l-12.998-2.9951a4.1813,4.1813,0,0,0-5.0269,3.205,4.2345,4.2345,0,0,0,3.2205,4.9557l9.5924,2.21a3.2283,3.2283,0,0,1,2.4176,3.8668l-.0079.038-.3467,1.8545a.935.935,0,0,0,1.8381.3436l.3434-1.8364a5.101,5.101,0,0,0-3.8246-6.0891l-9.5925-2.21a2.356,2.356,0,0,1-1.8113-2.7436A2.3112,2.3112,0,0,1,16.7625,13.41l13.5424,3.12a8.9637,8.9637,0,0,0,16.0763,3.7042L59.759,23.3163A2.3591,2.3591,0,0,1,61.5717,26.06a2.3069,2.3069,0,0,1-2.7766,1.7726l-9.63-2.2189a5.0954,5.0954,0,0,0-6.1174,3.8617l-1.1924,5.3758-14.3616.591c.0088-.0558.0168-.1118.0273-.1672l.5153-2.7564a.935.935,0,1,0-1.8381-.3436l-.5152,2.7562a8.12,8.12,0,0,0-.1378,1.4885,9.3919,9.3919,0,0,0,2.769,6.6849l3.5,3.5-.2891.2878c-3.9567-1.5213-8.3226-3.1165-13.6787-4.9979a3.5216,3.5216,0,0,0-4.5788,4.1985l.94,3.6553L11.21,52.0411a3.5223,3.5223,0,0,0,1.0066,6.131c8.9549,3.05,20.4882,6.8228,30.27,8.948a70.071,70.071,0,0,0,14.5,1.8631A23.81,23.81,0,0,0,64.5337,67.94a.9364.9364,0,0,0,.6372-.8618A.96.96,0,0,0,65.0052,66.5219Zm-22.1191-45.54A7.0885,7.0885,0,0,1,32.07,15.6091a8.89,8.89,0,0,0,5.5175-2.3742A8.984,8.984,0,0,0,43.77,14.6861a8.9792,8.9792,0,0,0,1.9746,2.826A7.0333,7.0333,0,0,1,42.8861,20.9814Zm3.324-5.7759a7.1167,7.1167,0,0,1-.9628-1.8741.9352.9352,0,0,0-1.0921-.6128,7.0971,7.0971,0,0,1-6.07-1.4434.9354.9354,0,0,0-1.294.1,7.0462,7.0462,0,0,1-4.6388,2.3506q.0311-.1719.07-.3435a7.0929,7.0929,0,0,1,6.8916-5.4975,7.0973,7.0973,0,0,1,7.0954,7.32Zm4.496,29.9663a2.0294,2.0294,0,0,1,0,2.87l-6.4455,6.4456a.9351.9351,0,0,0-.0029,1.3195,2.6785,2.6785,0,0,1,.1753,3.5674l-5.38-5.4514L45.7381,47.27a.9351.9351,0,0,0,.0014-1.3239l-.693-.6929,4.3052-1.4353ZM40.0872,43.8494l-1.4106-1.4106a.18.18,0,0,1,.1265-.3068,1.2757,1.2757,0,0,1,.4357.11,1.2415,1.2415,0,0,1,.3814.2292l4.1342,4.1341L40.02,50.3222c-.2088-.0889-.4164-.1782-.6262-.2668l.6934-.6908a3.8975,3.8975,0,0,0,0-5.5152ZM29.6364,41.7825a7.5234,7.5234,0,0,1-2.1671-4.4674l14.7721-.6079,5.6319,5.6318-4.3052,1.4352-2.623-2.6229a3.3264,3.3264,0,0,0-2.1419-.8893,2.05,2.05,0,0,0-1.4494,3.4987l.3415.3415-4.3043,1.435Zm4.0056,5.642,5.4527-1.818a2.0239,2.0239,0,0,1-.329,2.4341L32.309,54.4738a.9351.9351,0,0,0-.0016,1.3233,2.68,2.68,0,0,1,.1848,3.5774l-5.381-5.4515Z"/><path class="cls-1" d="M42.573,16.211a.935.935,0,0,0-1.1212.7012l-.2343,1.0166a.935.935,0,1,0,1.8223.42l.2343-1.0166A.9349.9349,0,0,0,42.573,16.211Z"/><path class="cls-1" d="M38.1131,15.1834a.9353.9353,0,0,0-1.1213.7013l-.2343,1.0166a.9351.9351,0,1,0,1.8224.42l.2343-1.0166A.9351.9351,0,0,0,38.1131,15.1834Z"/></svg>