<svg id="Capa_1" data-name="Capa 1" xmlns="http://www.w3.org/2000/svg" width="75" height="75" viewBox="0 0 75 75"><defs><style>.cls-1{fill:#212121;}</style></defs><path class="cls-1" d="M57.581,56.9a3.0438,3.0438,0,1,0,3.0442,3.0438A3.0472,3.0472,0,0,0,57.581,56.9Zm.001,4.725h-.0005a1.681,1.681,0,1,1,.0005,0Z"/><path class="cls-1" d="M15.0556,56.9A3.0438,3.0438,0,1,0,18.1,59.944,3.0472,3.0472,0,0,0,15.0556,56.9Zm.001,4.725h0a1.6813,1.6813,0,1,1,1.6812-1.6812A1.6831,1.6831,0,0,1,15.0561,61.6252Z"/><path class="cls-1" d="M68.2128,66.35h-6.08l.8787-.8578A7.798,7.798,0,0,0,65.27,61.0536l.062-.4284h7.606a.682.682,0,0,0,.6813-.6812V46.95a.65.65,0,0,0-.0359-.2172L67.961,30.2222l-.0267-.0784v-.0011l-.1591-.4646c-.0059-.0169-.0122-.0356-.02-.054a7.7848,7.7848,0,0,0-7.1008-4.618H52.3564V22.8249H68.2128a.6825.6825,0,0,0,.5669-1.06l-2.3621-3.5431a.6845.6845,0,0,0-.5681-.3031H46.45V11.5123a.682.682,0,0,0-.6813-.6813H42.9063V7.9685a.6821.6821,0,0,0-.6812-.6813H37.5a.6821.6821,0,0,0-.6812.6813V10.831H31.0937V7.9685a.6821.6821,0,0,0-.6813-.6813h-4.725a.6821.6821,0,0,0-.6813.6813V10.831H22.1436a.682.682,0,0,0-.6812.6813v6.4062H16.9005l-.0623-.4279a7.8261,7.8261,0,0,0-7.6892-6.66.6818.6818,0,0,0-.68.6814.6719.6719,0,0,0,.0092.1115L9.43,17.3363l.0971.5822H5.6059a.6821.6821,0,0,0-.6812.6813v3.5438a.682.682,0,0,0,.6812.6813H16.7373v2.1812H9.15A7.7384,7.7384,0,0,0,1.9149,29.95a.8177.8177,0,0,0-.0442.109,7.7488,7.7488,0,0,0-.49,2.7158v27.17a.682.682,0,0,0,.6813.6812H7.3057l.062.4284A7.7974,7.7974,0,0,0,9.626,65.4925l.8787.8578H2.0622a.6813.6813,0,1,0,0,1.3625H68.2128a.6813.6813,0,1,0,0-1.3625Zm4.0438-13.4939v1.6813H68.8941V52.3564h3.3625ZM66.818,31.0937l.1154.3388,3.2189,9.45.2252.6612h-16.84v-10.45h13.28ZM38.1812,10.331V8.65h3.3626V10.831H38.1812Zm-3.5437,7.0875v-5.225h10.45v5.725h-10.45ZM26.3687,10.331V8.65h3.3625V10.831H26.3687Zm-3.5438,7.0875v-5.225h10.45v5.725h-10.45Zm-12.13-5.0372a6.464,6.464,0,0,1,4.7329,4.9362l.1241.601H10.9085l-.07-.4177L10.08,12.9485l-.1256-.7528ZM6.7872,21.4624h-.5V19.2811H65.486l.1484.2228.787,1.1813.5178.7772H6.7872Zm44.2067,1.3625v2.1812H18.1V22.8249H50.9939ZM2.7434,41.0438V32.775a6.4839,6.4839,0,0,1,.1648-1.4411l.0893-.3878H14.3748V41.5438H2.7434Zm0,5.9063V42.9063H15.0561a.682.682,0,0,0,.6812-.6812v-11.96a.682.682,0,0,0-.6812-.6813H3.5046l.6491-.8122A6.364,6.364,0,0,1,9.15,26.3687H60.6542a6.441,6.441,0,0,1,5.1235,2.5624l.6.8H52.8564a.682.682,0,0,0-.6813.6812V42.2251a.682.682,0,0,0,.6813.6812H70.8418l.1153.3389,1.2064,3.5438.225.6611H2.7434Zm0,7.0876V52.3564H4.924l.0007.4994.0015,1.1813.0006.5006H2.7434Zm4.5625,5.225H2.7434V55.9H4.4247A1.8687,1.8687,0,0,0,6.2872,54.037V52.8564A1.8685,1.8685,0,0,0,4.424,50.9939H2.7434V48.8127H72.2566v2.1812H69.3941a1.8686,1.8686,0,0,0-1.8626,1.8632v1.1806A1.8687,1.8687,0,0,0,69.3947,55.9h2.8619v3.3625h-6.925l-.0619-.4286a7.7679,7.7679,0,0,0-15.3765,0l-.0619.4286H22.8062l-.0618-.4286a7.768,7.768,0,0,0-15.3767,0ZM15.0566,66.35h0a6.4063,6.4063,0,1,1,6.4063-6.4063A6.4136,6.4136,0,0,1,15.0561,66.35Zm36.7456,0H19.6074l.8787-.8578a7.7986,7.7986,0,0,0,2.2583-4.4389l.062-.4284H49.8311l.062.4284a7.7986,7.7986,0,0,0,2.2583,4.4389l.8787.8578Zm5.78,0h0a6.4063,6.4063,0,1,1,6.4063-6.4063A6.4136,6.4136,0,0,1,57.5815,66.35Z"/><path class="cls-1" d="M19.7811,29.7312a.682.682,0,0,0-.6813.6812V42.2251a.682.682,0,0,0,.6813.6812h28.35a.682.682,0,0,0,.6812-.6812V30.4124a.682.682,0,0,0-.6812-.6812Zm13.4938,1.8625v9.95H20.4624v-10.45H33.2749Zm14.1752,0v9.95H34.6375v-10.45H47.45Z"/><path class="cls-1" d="M72.9378,66.35H71.7566a.6813.6813,0,1,0,0,1.3625h1.1812a.6813.6813,0,1,0,0-1.3625Z"/></svg>